<svg xmlns="http://www.w3.org/2000/svg" width="39.368" height="34.86" viewBox="0 0 39.368 34.86">
  <g id="location-on-map" transform="translate(0 0)">
    <path id="Path_595" data-name="Path 595" d="M91.263,39.381a1.322,1.322,0,0,0,1.746,0c.316-.278,7.74-6.9,7.74-13.758a8.613,8.613,0,1,0-17.226,0C83.523,32.486,90.947,39.1,91.263,39.381Zm.873-16.009A2.251,2.251,0,1,1,89.9,25.623,2.242,2.242,0,0,1,92.136,23.372Z" transform="translate(-72.452 -17.007)" fill="#b1b1b1"/>
    <path id="Path_596" data-name="Path 596" d="M55.491,156.619l-1-3.5a1.321,1.321,0,0,0-1.27-.959H46.1q-.386.574-.816,1.153a32.979,32.979,0,0,1-4.25,4.694,3.171,3.171,0,0,1-4.191,0,32.985,32.985,0,0,1-4.25-4.693q-.431-.579-.816-1.153H24.658a1.321,1.321,0,0,0-1.27.959L22.2,157.29l26.581,4.869Z" transform="translate(-19.257 -134.249)" fill="#b1b1b1"/>
    <path id="Path_597" data-name="Path 597" d="M197.171,208.829l-2.549-8.934-12.647,10.617H195.9a1.321,1.321,0,0,0,1.27-1.684Z" transform="translate(-157.854 -175.653)" fill="#b1b1b1"/>
    <path id="Path_598" data-name="Path 598" d="M6.468,205.051l-4.035-.739L.051,212.66a1.321,1.321,0,0,0,1.27,1.684H6.468Z" transform="translate(-0.001 -179.484)" fill="#b1b1b1"/>
    <path id="Path_599" data-name="Path 599" d="M62.746,212.445V221.4H75.674l6.44-5.406Z" transform="translate(-54.429 -186.539)" fill="#b1b1b1"/>
  </g>
</svg>
