<svg xmlns="http://www.w3.org/2000/svg" width="118.921" height="118.916" viewBox="0 0 118.921 118.916">
  <g id="advertising" transform="translate(0 -0.501)">
    <path id="Path_1115" data-name="Path 1115" d="M54.76,49.145h.022a2.334,2.334,0,1,0-.022,0Zm0,0" transform="translate(-40.258 -33.78)" fill="#47c7b5"/>
    <path id="Path_1116" data-name="Path 1116" d="M100.261,49.145h.022a2.334,2.334,0,1,0-.022,0Zm0,0" transform="translate(-75.19 -33.78)" fill="#47c7b5"/>
    <path id="Path_1117" data-name="Path 1117" d="M145.764,49.145h.022a2.334,2.334,0,1,0-.022,0Zm0,0" transform="translate(-110.124 -33.78)" fill="#47c7b5"/>
    <path id="Path_1118" data-name="Path 1118" d="M224.069,49.144h32.34a2.322,2.322,0,1,0,0-4.644h-32.34a2.322,2.322,0,1,0,0,4.644Zm0,0" transform="translate(-170.242 -33.78)" fill="#47c7b5"/>
    <path id="Path_1119" data-name="Path 1119" d="M416.307,268.492a2.325,2.325,0,1,0,1.641.68A2.337,2.337,0,0,0,416.307,268.492Zm0,0" transform="translate(-317.829 -205.746)" fill="#47c7b5"/>
    <path id="Path_1120" data-name="Path 1120" d="M197.407,176.492h-2.892a2.322,2.322,0,0,0-2.323,2.323v16.722a2.322,2.322,0,0,0,2.323,2.323h2.892a10.684,10.684,0,0,0,0-21.368Zm0,16.722h-.57V181.137h.57a6.038,6.038,0,0,1,0,12.077Zm0,0" transform="translate(-147.552 -135.114)" fill="#47c7b5"/>
    <path id="Path_1121" data-name="Path 1121" d="M113.493,178.075a2.322,2.322,0,0,0-4.4,0L103.464,194.8a2.322,2.322,0,1,0,4.4,1.482l.171-.509h6.509l.171.509a2.322,2.322,0,1,0,4.4-1.482Zm-3.893,13.05,1.692-5.027,1.691,5.027Zm0,0" transform="translate(-79.339 -135.115)" fill="#47c7b5"/>
    <path id="Path_1122" data-name="Path 1122" d="M118.24,99.722,102.448,83.93l5.566-5.565a2.323,2.323,0,0,0-1-3.874L73.394,64.808V34.41a2.322,2.322,0,0,0-2.323-2.322h-57.6a2.322,2.322,0,0,0-2.322,2.322v35.3a2.322,2.322,0,0,0,2.322,2.323H63.777l4.014,13.935H6.968a2.325,2.325,0,0,1-2.323-2.323V25.585H96.155V55.778a2.323,2.323,0,0,0,4.645,0V7.469A6.976,6.976,0,0,0,93.832.5H6.968A6.976,6.976,0,0,0,0,7.469v76.18a6.976,6.976,0,0,0,6.968,6.968h62.16l4.865,16.894a2.323,2.323,0,0,0,3.874,1l5.565-5.565,15.792,15.792a2.324,2.324,0,0,0,3.284,0l15.731-15.731a2.322,2.322,0,0,0,0-3.284ZM6.968,5.146H93.832a2.325,2.325,0,0,1,2.323,2.323V20.939H4.646V7.469A2.325,2.325,0,0,1,6.968,5.146Zm8.825,62.245V36.732H68.748V63.469L64.676,62.3A2.323,2.323,0,0,0,61.8,65.171l.64,2.219Zm85.074,46.419L85.076,98.017a2.323,2.323,0,0,0-3.285,0l-4.423,4.424L67.426,67.923l34.518,9.94-4.423,4.424a2.322,2.322,0,0,0,0,3.284l15.792,15.791Zm0,0" fill="#47c7b5"/>
    <path id="Path_1123" data-name="Path 1123" d="M67.622,333.132a2.322,2.322,0,1,0,0-4.644H51.749a2.322,2.322,0,1,0,0,4.644Zm0,0" transform="translate(-37.946 -251.807)" fill="#47c7b5"/>
    <path id="Path_1124" data-name="Path 1124" d="M161.23,332.454a2.321,2.321,0,1,0-1.642.68A2.341,2.341,0,0,0,161.23,332.454Zm0,0" transform="translate(-120.738 -251.807)" fill="#47c7b5"/>
  </g>
</svg>
