<svg xmlns="http://www.w3.org/2000/svg" width="156" height="122.087" viewBox="0 0 156 122.087">
  <g id="free" transform="translate(0 -53.333)">
    <g id="Group_1420" data-name="Group 1420" transform="translate(13.565 114.377)">
      <g id="Group_1419" data-name="Group 1419">
        <path id="Path_1104" data-name="Path 1104" d="M66.405,245.333H46.057a3.393,3.393,0,0,0-3.391,3.391v40.7a3.391,3.391,0,0,0,6.783,0v-37.3H66.405a3.391,3.391,0,1,0,0-6.783Z" transform="translate(-42.666 -245.333)" fill="#47c7b5"/>
      </g>
    </g>
    <g id="Group_1422" data-name="Group 1422" transform="translate(13.565 134.724)">
      <g id="Group_1421" data-name="Group 1421">
        <path id="Path_1105" data-name="Path 1105" d="M59.623,309.333H46.057a3.391,3.391,0,1,0,0,6.783H59.623a3.391,3.391,0,1,0,0-6.783Z" transform="translate(-42.666 -309.333)" fill="#47c7b5"/>
      </g>
    </g>
    <g id="Group_1424" data-name="Group 1424" transform="translate(47.478 114.377)">
      <g id="Group_1423" data-name="Group 1423">
        <path id="Path_1106" data-name="Path 1106" d="M160.911,272.464H162.9a13.565,13.565,0,1,0,0-27.131H152.724a3.393,3.393,0,0,0-3.391,3.391v40.7a3.391,3.391,0,0,0,6.783,0V277.259l14.555,14.562a3.407,3.407,0,0,0,2.4.99,3.358,3.358,0,0,0,2.394-1,3.394,3.394,0,0,0,0-4.8Zm-4.8-20.348H162.9a6.783,6.783,0,1,1,0,13.565h-6.783V252.116Z" transform="translate(-149.333 -245.333)" fill="#47c7b5"/>
      </g>
    </g>
    <g id="Group_1426" data-name="Group 1426" transform="translate(81.391 114.377)">
      <g id="Group_1425" data-name="Group 1425">
        <path id="Path_1107" data-name="Path 1107" d="M279.739,286.029H262.783V252.116h16.956a3.391,3.391,0,1,0,0-6.783H259.391A3.393,3.393,0,0,0,256,248.724v40.7a3.393,3.393,0,0,0,3.391,3.391h20.348a3.391,3.391,0,1,0,0-6.783Z" transform="translate(-256 -245.333)" fill="#47c7b5"/>
      </g>
    </g>
    <g id="Group_1428" data-name="Group 1428" transform="translate(81.391 134.724)">
      <g id="Group_1427" data-name="Group 1427">
        <path id="Path_1108" data-name="Path 1108" d="M272.956,309.333H259.39a3.391,3.391,0,1,0,0,6.783h13.565a3.391,3.391,0,1,0,0-6.783Z" transform="translate(-255.999 -309.333)" fill="#47c7b5"/>
      </g>
    </g>
    <g id="Group_1430" data-name="Group 1430" transform="translate(115.304 114.377)">
      <g id="Group_1429" data-name="Group 1429">
        <path id="Path_1109" data-name="Path 1109" d="M386.405,286.029H369.449V252.116h16.956a3.391,3.391,0,0,0,0-6.783H366.057a3.393,3.393,0,0,0-3.391,3.391v40.7a3.393,3.393,0,0,0,3.391,3.391h20.348a3.391,3.391,0,0,0,0-6.783Z" transform="translate(-362.666 -245.333)" fill="#47c7b5"/>
      </g>
    </g>
    <g id="Group_1432" data-name="Group 1432" transform="translate(115.304 134.724)">
      <g id="Group_1431" data-name="Group 1431">
        <path id="Path_1110" data-name="Path 1110" d="M379.623,309.333H366.057a3.391,3.391,0,1,0,0,6.783h13.565a3.391,3.391,0,0,0,0-6.783Z" transform="translate(-362.666 -309.333)" fill="#47c7b5"/>
      </g>
    </g>
    <g id="Group_1434" data-name="Group 1434" transform="translate(0 100.812)">
      <g id="Group_1433" data-name="Group 1433">
        <path id="Path_1111" data-name="Path 1111" d="M139.044,202.667H16.956A16.976,16.976,0,0,0,0,219.623v40.7a16.976,16.976,0,0,0,16.956,16.956H139.044A16.976,16.976,0,0,0,156,260.319v-40.7A16.975,16.975,0,0,0,139.044,202.667Zm10.174,57.652a10.186,10.186,0,0,1-10.174,10.174H16.956A10.186,10.186,0,0,1,6.783,260.319v-40.7A10.186,10.186,0,0,1,16.956,209.45H139.044a10.186,10.186,0,0,1,10.174,10.174Z" transform="translate(0 -202.667)" fill="#47c7b5"/>
      </g>
    </g>
    <g id="Group_1436" data-name="Group 1436" transform="translate(61.044 53.333)">
      <g id="Group_1435" data-name="Group 1435">
        <path id="Path_1112" data-name="Path 1112" d="M208.956,53.333A16.957,16.957,0,1,0,225.913,70.29,16.976,16.976,0,0,0,208.956,53.333Zm0,27.131A10.174,10.174,0,1,1,219.13,70.29,10.186,10.186,0,0,1,208.956,80.464Z" transform="translate(-192 -53.333)" fill="#47c7b5"/>
      </g>
    </g>
    <g id="Group_1438" data-name="Group 1438" transform="translate(27.129 66.903)">
      <g id="Group_1437" data-name="Group 1437">
        <path id="Path_1113" data-name="Path 1113" d="M125.028,97.008a3.394,3.394,0,0,0-4.8,0L86.32,130.921a3.391,3.391,0,0,0,4.8,4.8L125.029,101.8A3.394,3.394,0,0,0,125.028,97.008Z" transform="translate(-85.328 -96.016)" fill="#47c7b5"/>
      </g>
    </g>
    <g id="Group_1440" data-name="Group 1440" transform="translate(88.172 66.903)">
      <g id="Group_1439" data-name="Group 1439">
        <path id="Path_1114" data-name="Path 1114" d="M317.028,130.921,283.115,97.008a3.391,3.391,0,0,0-4.8,4.8l33.913,33.913a3.391,3.391,0,1,0,4.8-4.8Z" transform="translate(-277.328 -96.016)" fill="#47c7b5"/>
      </g>
    </g>
  </g>
</svg>
