<svg xmlns="http://www.w3.org/2000/svg" width="148" height="118.778" viewBox="0 0 148 118.778">
  <g id="partner" transform="translate(0.001 0.001)">
    <path id="Path_1099" data-name="Path 1099" d="M396.241,65.784a2.89,2.89,0,1,0-4.087,0A2.892,2.892,0,0,0,396.241,65.784Zm0,0" transform="translate(-278.194 -43.261)" fill="#47c7b5"/>
    <path id="Path_1100" data-name="Path 1100" d="M118.35,86.5a2.89,2.89,0,1,0-4.088,0A2.892,2.892,0,0,0,118.35,86.5Zm0,0" transform="translate(-80.631 -57.988)" fill="#47c7b5"/>
    <path id="Path_1101" data-name="Path 1101" d="M59.5,122.79l8.652-8.655a2.891,2.891,0,0,0-4.089-4.088L55.416,118.7A2.891,2.891,0,0,0,59.5,122.79Zm0,0" transform="translate(-38.796 -77.636)" fill="#47c7b5"/>
    <path id="Path_1102" data-name="Path 1102" d="M425.1,100.892a2.891,2.891,0,1,0,4.089-4.088l-5.767-5.767a2.891,2.891,0,1,0-4.089,4.088Zm0,0" transform="translate(-297.521 -64.121)" fill="#47c7b5"/>
    <path id="Path_1103" data-name="Path 1103" d="M147.153,33.551l-32.7-32.7a2.889,2.889,0,0,0-4.025-.06c-2.539,2.393-14.476,13.633-14.648,13.8l-.032.029c-2.827,2.827-5.611,4.088-9.025,4.088-6.98,0-12.328,1.971-16.769,6.178-3.642-3.448-7.769-5.231-13.528-5.826L41.975,4.6a2.891,2.891,0,0,0-4.089,0L.846,41.644a2.885,2.885,0,0,0-.064,4.018c.023.024.042.047.064.07,0,0,24.1,24.066,24.137,24.1l-1.021,1.021a10.108,10.108,0,0,0,7.259,17.26,10.1,10.1,0,0,0,10.22,10.223,10.1,10.1,0,0,0,10.22,10.217,10.116,10.116,0,0,0,17.268,7.267l1.023-1.023,1.023,1.023a10.117,10.117,0,0,0,17.269-7.262A10.1,10.1,0,0,0,98.459,98.339a10.112,10.112,0,0,0,10.224-10.228,10.108,10.108,0,0,0,7.259-17.26l-1.02-1.02c20.154-20.132-5.341,5.384,32.229-32.193a2.89,2.89,0,0,0,0-4.088ZM6.979,43.687,39.931,10.736,51.036,21.841,18.091,54.791ZM28.05,81.07a4.334,4.334,0,0,1,0-6.131L38.271,64.717A4.336,4.336,0,0,1,44.4,70.851L34.184,81.069a4.348,4.348,0,0,1-6.135,0ZM38.271,91.291a4.333,4.333,0,0,1,0-6.134L48.49,74.938a4.336,4.336,0,0,1,6.134,6.13s0,0,0,0L44.4,91.291a4.34,4.34,0,0,1-6.131,0ZM48.49,101.508a4.333,4.333,0,0,1,0-6.13L58.711,85.157a4.336,4.336,0,0,1,6.131,6.132h0L54.624,101.507a4.346,4.346,0,0,1-6.135,0Zm10.221,10.222a4.333,4.333,0,0,1,0-6.134L68.93,95.378a4.336,4.336,0,0,1,6.132,6.131l-10.22,10.221a4.343,4.343,0,0,1-6.131,0Zm22.483,0a4.339,4.339,0,0,1-6.13,0l-1.023-1.023,5.111-5.111a10.446,10.446,0,0,0,.946-1.1l1.1,1.1h0a4.332,4.332,0,0,1,0,6.132Zm30.662-30.662a4.345,4.345,0,0,1-6.134,0L92.436,67.784a2.891,2.891,0,0,0-4.089,4.088l13.287,13.287A4.336,4.336,0,0,1,95.5,91.291L82.217,78a2.891,2.891,0,0,0-4.089,4.089L91.414,95.378a4.335,4.335,0,0,1-3.067,7.4c-2.747,0-3.632-2.163-6.237-4.441a10.112,10.112,0,0,0-10.218-10.01A10.1,10.1,0,0,0,61.671,78.114,10.1,10.1,0,0,0,51.452,67.889,10.117,10.117,0,0,0,34.183,60.63L29.07,65.743l-6.888-6.868L56.2,24.848c4.213.481,7.049,1.693,9.65,4.11l-8.167,8.166A11.563,11.563,0,0,0,74.04,53.475L82.217,45.3l29.637,29.64a4.339,4.339,0,0,1,0,6.129Zm-1.021-15.326L86.3,41.212l2.044-2.044a2.891,2.891,0,0,0-4.089-4.089L69.951,49.389a5.782,5.782,0,0,1-8.177-8.177L73.545,29.444c3.428-3.428,7.493-4.958,13.177-4.958a16.973,16.973,0,0,0,10.926-3.83l28.783,29.531-15.6,15.556ZM130.52,46.1,101.914,16.749,112.35,6.917l28.671,28.677Zm0,0" transform="translate(0 0)" fill="#47c7b5"/>
  </g>
</svg>
