<svg xmlns="http://www.w3.org/2000/svg" width="26.508" height="17.837" viewBox="0 0 26.508 17.837">
  <path id="crown" d="M25.465,49.358a.741.741,0,0,1-.02.221l-1.635,6.54a.743.743,0,0,1-.717.563l-9.81.05H3.468a.743.743,0,0,1-.721-.564L1.112,49.6a.742.742,0,0,1-.02-.227,1.562,1.562,0,1,1,1.459-.284L4.6,51.155a2.778,2.778,0,0,0,4.188-.283l3.364-4.458a1.562,1.562,0,1,1,2.23-.026l0,0,3.34,4.47a2.788,2.788,0,0,0,2.223,1.114,2.757,2.757,0,0,0,1.962-.813l2.06-2.06a1.561,1.561,0,1,1,1.5.256Zm-1.814,9.7a.743.743,0,0,0-.743-.743H3.683a.743.743,0,0,0-.743.743v1.784a.743.743,0,0,0,.743.743H22.908a.743.743,0,0,0,.743-.743Z" transform="translate(0 -43.75)" fill="#ffcc23"/>
</svg>
